<svg width="12" height="14" viewBox="0 0 12 14" fill="none" xmlns="http://www.w3.org/2000/svg">
<path fill-rule="evenodd" clip-rule="evenodd" d="M6 8C5.58579 8 5.25 8.33579 5.25 8.75C5.25 9.16421 5.58579 9.5 6 9.5C6.41421 9.5 6.75 9.16421 6.75 8.75C6.75 8.33579 6.41421 8 6 8ZM4.25 8.75C4.25 7.7835 5.0335 7 6 7C6.9665 7 7.75 7.7835 7.75 8.75C7.75 9.7165 6.9665 10.5 6 10.5C5.0335 10.5 4.25 9.7165 4.25 8.75Z" fill="#EB5757"/>
<path fill-rule="evenodd" clip-rule="evenodd" d="M6 9.5C6.27614 9.5 6.5 9.72386 6.5 10V11.5C6.5 11.7761 6.27614 12 6 12C5.72386 12 5.5 11.7761 5.5 11.5V10C5.5 9.72386 5.72386 9.5 6 9.5Z" fill="#EB5757"/>
<path fill-rule="evenodd" clip-rule="evenodd" d="M0 6C0 5.44772 0.447715 5 1 5H11C11.5523 5 12 5.44772 12 6V13C12 13.5523 11.5523 14 11 14H1C0.447715 14 0 13.5523 0 13V6ZM11 6H1V13H11V6Z" fill="#EB5757"/>
<path fill-rule="evenodd" clip-rule="evenodd" d="M6 1.5C5.53587 1.5 5.09075 1.68437 4.76256 2.01256C4.43437 2.34075 4.25 2.78587 4.25 3.25V5.5C4.25 5.77614 4.02614 6 3.75 6C3.47386 6 3.25 5.77614 3.25 5.5V3.25C3.25 2.52065 3.53973 1.82118 4.05546 1.30546C4.57118 0.789731 5.27065 0.5 6 0.5C6.72935 0.5 7.42882 0.789731 7.94454 1.30546C8.46027 1.82118 8.75 2.52065 8.75 3.25V5.5C8.75 5.77614 8.52614 6 8.25 6C7.97386 6 7.75 5.77614 7.75 5.5V3.25C7.75 2.78587 7.56563 2.34075 7.23744 2.01256C6.90925 1.68437 6.46413 1.5 6 1.5Z" fill="#EB5757"/>
</svg>
