<svg width="13" height="13" viewBox="0 0 13 13" fill="none" xmlns="http://www.w3.org/2000/svg">
<path d="M12.005 3.08516L9.20702 0.287779C9.0169 0.100161 8.76362 -0.00365406 8.49783 9.82985e-05C8.23079 0.00197448 7.98 0.108291 7.79489 0.295909L0.289557 7.80187C0.191995 7.90005 0.118199 8.0145 0.0694185 8.13895C0.0625392 8.15521 0.0569107 8.17147 0.0519076 8.18773C0.0181364 8.28842 0 8.39536 0 8.50481V11.3003C0 11.8519 0.449032 12.3009 1.00063 12.3009H3.79801C3.90182 12.3009 4.00501 12.2834 4.10257 12.2515C4.12696 12.2447 4.15135 12.2365 4.17449 12.2259C4.29519 12.1765 4.40651 12.1033 4.4997 12.0108L12.0125 4.49729C12.3997 4.10392 12.3946 3.46915 12.0044 3.08516H12.005ZM1.20826 8.29843L6.50595 3.00386L7.54723 4.04514L2.25141 9.34158L1.20826 8.29843ZM0.999377 9.50418L2.79488 11.2997H1.00063L0.998751 9.50418H0.999377ZM4.00314 11.0927L2.95936 10.0489L8.2558 4.75245L9.29958 5.79623L4.00314 11.0927ZM10.0069 5.08892L7.21452 2.29654L8.50846 1.00323L11.2977 3.79811L10.0069 5.08892Z" fill="#198D47"/>
</svg>
