<svg width="12" height="15" viewBox="0 0 12 15" fill="none" xmlns="http://www.w3.org/2000/svg">
<path d="M9.88889 6.5H2.11111C1.49746 6.5 1 7.02233 1 7.66667V12.3333C1 12.9777 1.49746 13.5 2.11111 13.5H9.88889C10.5025 13.5 11 12.9777 11 12.3333V7.66667C11 7.02233 10.5025 6.5 9.88889 6.5Z" stroke="#00A023" stroke-width="1.5" stroke-linecap="round" stroke-linejoin="round"/>
<path d="M3 6.5V3.375C3 2.87772 3.15804 2.40081 3.43934 2.04917C3.72064 1.69754 4.10218 1.5 4.5 1.5H7.5C7.89782 1.5 8.27936 1.69754 8.56066 2.04917C8.84196 2.40081 9 2.87772 9 3.375V4" stroke="#00A023" stroke-width="1.5" stroke-linecap="round" stroke-linejoin="round"/>
</svg>
