<svg width="25" height="18" viewBox="0 0 25 18" fill="none" xmlns="http://www.w3.org/2000/svg">
<circle cx="12.5" cy="8.5" r="3.5" stroke="#198D47" stroke-width="2"/>
<path d="M6 17C6 17 7.39286 13 12.5 13C17.6071 13 19 17 19 17" stroke="#198D47" stroke-width="2" stroke-linecap="round"/>
<path d="M18.8484 7C20.589 7 22 5.65685 22 4C22 2.34315 20.589 1 18.8484 1C17.5911 1 16.5058 1.70074 16 2.71429" stroke="#F7BF22" stroke-width="2" stroke-linecap="round"/>
<path d="M24 10C24 10 22.9286 7 19 7" stroke="#F7BF22" stroke-width="2" stroke-linecap="round"/>
<path d="M6.15165 7C4.41104 7 3 5.65685 3 4C3 2.34315 4.41104 1 6.15165 1C7.40888 1 8.49418 1.70074 9 2.71429" stroke="#F7BF22" stroke-width="2" stroke-linecap="round"/>
<path d="M1 10C1 10 2.07143 7 6 7" stroke="#F7BF22" stroke-width="2" stroke-linecap="round"/>
</svg>
