<svg width="14" height="14" viewBox="0 0 14 14" fill="none" xmlns="http://www.w3.org/2000/svg">
<path fill-rule="evenodd" clip-rule="evenodd" d="M10.6667 0C10.8435 0 11.013 0.0702379 11.1381 0.195262L13.1381 2.19526C13.2631 2.32029 13.3333 2.48986 13.3333 2.66667V6.66667C13.3333 6.84348 13.2631 7.01305 13.1381 7.13807L11.1381 9.13807C11.013 9.26309 10.8435 9.33333 10.6667 9.33333H7.60948L3.80474 13.1381C3.67971 13.2631 3.51014 13.3333 3.33333 13.3333H0.666667C0.298477 13.3333 0 13.0349 0 12.6667V10C0 9.82319 0.0702379 9.65362 0.195262 9.52859L4 5.72386V2.66667C4 2.48986 4.07024 2.32029 4.19526 2.19526L6.19526 0.195262C6.32029 0.0702379 6.48986 0 6.66667 0H10.6667ZM10.3905 1.33333H6.94281L5.33333 2.94281V6C5.33333 6.17681 5.26309 6.34638 5.13807 6.4714L1.33333 10.2761V12H3.05719L6.86193 8.19526C6.98695 8.07024 7.15652 8 7.33333 8H10.3905L12 6.39052V2.94281L10.3905 1.33333ZM9.33333 2.66667C10.0697 2.66667 10.6667 3.26362 10.6667 4C10.6667 4.73638 10.0697 5.33333 9.33333 5.33333C8.59695 5.33333 8 4.73638 8 4C8 3.26362 8.59695 2.66667 9.33333 2.66667Z" fill="#00A023"/>
</svg>
