<svg width="14" height="14" viewBox="0 0 14 14" fill="none" xmlns="http://www.w3.org/2000/svg">
<path fill-rule="evenodd" clip-rule="evenodd" d="M6.25 1.5C3.62665 1.5 1.5 3.62665 1.5 6.25C1.5 8.87335 3.62665 11 6.25 11C8.87335 11 11 8.87335 11 6.25C11 3.62665 8.87335 1.5 6.25 1.5ZM0.5 6.25C0.5 3.07436 3.07436 0.5 6.25 0.5C9.42564 0.5 12 3.07436 12 6.25C12 9.42564 9.42564 12 6.25 12C3.07436 12 0.5 9.42564 0.5 6.25Z" fill="#AAC1BC"/>
<path fill-rule="evenodd" clip-rule="evenodd" d="M9.60885 9.60897C9.80411 9.41371 10.1207 9.41371 10.316 9.60897L13.3535 12.6465C13.5487 12.8417 13.5487 13.1583 13.3535 13.3536C13.1582 13.5488 12.8416 13.5488 12.6463 13.3536L9.60885 10.3161C9.41359 10.1208 9.41359 9.80423 9.60885 9.60897Z" fill="#AAC1BC"/>
</svg>
