<svg width="1920" height="490" viewBox="0 0 1920 490" fill="none" xmlns="http://www.w3.org/2000/svg">
<g clip-path="url(#clip0_532_568)">
<path d="M811.95 1.68004L764.298 116.075H783.695V77.5869H843.87V116.075H866.78V163.116H843.87V201.909H783.695V163.116H698.318V120.351L749.636 1.68004H811.95Z" fill="#198D47"/>
<path d="M1036.46 101.871C1036.46 167.545 1007.6 203.742 955.67 203.742C903.131 203.742 874.57 167.545 874.57 101.871C874.57 36.197 903.131 0 955.67 0C1007.75 0 1036.46 36.197 1036.46 101.871ZM937.19 101.871C937.19 143.872 941.466 159.298 955.67 159.298C969.721 159.298 973.998 143.872 973.998 101.871C973.998 59.5647 969.721 44.4445 955.67 44.4445C941.466 44.5972 937.19 59.7175 937.19 101.871Z" fill="#198D47"/>
<path d="M1164.14 1.68004L1116.49 116.075H1135.89V77.5869H1196.07V116.075H1218.98V163.116H1196.07V201.909H1135.89V163.116H1050.51V120.351L1101.83 1.68004H1164.14Z" fill="#198D47"/>
<path d="M1921 343.49C1631 343.49 1327.54 391.23 1306.5 392.63C1255.05 396.055 1163.82 394.545 1145.82 343.49C1121.23 273.998 1120.62 219.473 1104.89 205.88" stroke="#77968D" stroke-width="1.5273" stroke-miterlimit="10"/>
<path d="M0 332C326 332 593.252 391.317 615 392.711C666.749 396.028 756.835 394.14 774.686 343.49C799.276 273.998 799.887 219.473 815.618 205.88" stroke="#77968D" stroke-width="1.5273" stroke-miterlimit="10"/>
<path d="M1002.41 414.204L995.384 461.398H979.805L972.627 414.204H1002.41Z" fill="#658279"/>
<path d="M995.384 414.204L988.358 461.398H979.805L972.627 414.204H995.384Z" fill="#77968D"/>
<path d="M993.396 489.5L1019.97 482.933L996.45 460.329H979.803V468.118L993.396 489.5Z" fill="#658279"/>
<path d="M999.965 394.044L980.263 397.251L979.041 397.404L970.335 398.778L970.03 397.709L955.062 339.061L966.517 337.534L967.739 337.381L983.623 335.243L990.343 334.326L999.965 394.044Z" fill="#658279"/>
<path d="M993.092 394.044L973.39 397.251L972.168 397.404L970.03 397.709L955.062 339.061L966.517 337.534L967.739 337.381L983.623 335.243L993.092 394.044Z" fill="#77968D"/>
<path d="M970.06 404.538L1002.03 399.39L1000.79 391.699L968.821 396.848L970.06 404.538Z" fill="#658279"/>
<path d="M1003.48 406.873L998.591 407.331L971.252 410.386L970.488 402.597L997.827 399.542L1002.71 399.084L1003.48 406.873Z" fill="#658279"/>
<path d="M997.793 399.614L970.461 402.575L971.3 410.319L998.632 407.359L997.793 399.614Z" fill="#77968D"/>
<path d="M971.423 417.341L1003.7 414.696L1003.06 406.933L970.787 409.577L971.423 417.341Z" fill="#658279"/>
<path d="M1019.97 482.933V488.584L993.396 489.5L1019.97 482.933Z" fill="#77968D"/>
<path d="M987.9 468.118L986.678 468.271L981.332 408.095L979.041 397.404L966.518 337.534L967.739 337.381L980.263 397.251L982.554 407.942L987.9 468.118Z" fill="#658279"/>
<path d="M943.911 414.204L936.886 461.398H921.155L914.129 414.204H943.911Z" fill="#658279"/>
<path d="M938.108 414.204L931.082 461.398H921.155L914.129 414.204H938.108Z" fill="#77968D"/>
<path d="M923.294 489.5L896.719 482.933L921.003 460.176L936.734 460.329V468.118L923.294 489.5Z" fill="#658279"/>
<path d="M962.087 339.061L946.814 398.778L941.01 397.862L939.024 397.557L937.803 397.404L917.031 394.044L926.501 335.09L926.653 334.326L950.326 337.534L951.548 337.686L962.087 339.061Z" fill="#658279"/>
<path d="M955.977 339.061L941.01 397.862L939.024 397.557L937.803 397.404L917.031 394.044L926.501 335.09L944.37 337.534L945.592 337.686L955.977 339.061Z" fill="#77968D"/>
<path d="M947.885 396.793L946.51 404.582L914.59 399.389L915.812 391.753L938.263 395.266L939.485 395.418L947.885 396.793Z" fill="#658279"/>
<path d="M946.205 402.597L945.289 410.386L939.79 409.775L913.062 406.873L913.979 399.084L940.707 401.986L946.205 402.597Z" fill="#658279"/>
<path d="M940.707 401.986L939.79 409.775L913.062 406.873L913.979 399.084L940.707 401.986Z" fill="#77968D"/>
<path d="M945.872 409.601L913.6 406.957L912.963 414.72L945.235 417.364L945.872 409.601Z" fill="#658279"/>
<path d="M896.719 482.933V488.584L923.294 489.5L896.719 482.933Z" fill="#77968D"/>
<path d="M935.055 414.204H936.277L932.153 461.398H930.932L935.055 414.204Z" fill="#658279"/>
<path d="M951.551 337.686L939.486 395.418L938.264 395.266L950.329 337.534L951.551 337.686Z" fill="#658279"/>
<path d="M958.575 58.0375H956.59V87.6671H958.575V58.0375Z" fill="#94AFA8"/>
<path d="M966.669 96.22H949.41V94.6927C949.41 89.9581 953.228 86.1398 957.963 86.1398C962.698 86.1398 966.516 89.9581 966.516 94.6927V96.22H966.669Z" fill="#77968D"/>
<path d="M1040.33 234.38L1048.94 246.806L1092.5 216.613L1083.88 204.187L1040.33 234.38Z" fill="#77968D"/>
<path d="M989.73 238.87L1038.6 250.783L1043.03 234.899L986.828 211.073L989.73 238.87Z" fill="#77968D"/>
<path d="M1032.5 242.383C1032.5 247.27 1036.47 251.241 1041.35 251.241C1046.24 251.241 1050.21 247.27 1050.21 242.383C1050.21 237.495 1046.24 233.524 1041.35 233.524C1036.62 233.524 1032.5 237.495 1032.5 242.383Z" fill="#AAC1BC"/>
<path d="M1036.16 242.383C1036.16 245.285 1038.45 247.576 1041.35 247.576C1044.26 247.576 1046.55 245.285 1046.55 242.383C1046.55 239.481 1044.26 237.19 1041.35 237.19C1038.61 237.19 1036.16 239.481 1036.16 242.383Z" fill="#77968D"/>
<path d="M1091.76 185.262L1086.41 190.913C1080.3 197.327 1080.61 207.56 1087.02 213.517C1093.44 219.626 1103.67 219.32 1109.63 212.906L1114.97 207.255L1108.86 201.451L1103.67 206.949C1100.77 210.004 1095.88 210.157 1092.83 207.255C1089.77 204.353 1089.62 199.466 1092.52 196.411L1097.71 190.913L1091.76 185.262Z" fill="#AAC1BC"/>
<path d="M831.536 204.264L822.922 216.69L866.475 246.882L875.089 234.456L831.536 204.264Z" fill="#77968D"/>
<path d="M925.584 238.87L876.71 250.783L872.281 234.899L928.486 211.684L925.584 238.87Z" fill="#77968D"/>
<path d="M988.204 104.009V177.167C988.204 185.109 981.789 191.676 973.694 191.676H942.996C935.054 191.676 928.486 185.262 928.486 177.167V107.522C928.486 100.191 933.985 93.929 941.316 93.1654L966.974 90.2635L972.014 89.6526C980.567 88.7362 988.204 95.4563 988.204 104.009Z" fill="#94AFA8"/>
<path d="M977.055 104.009V177.167C977.055 185.109 970.64 191.676 962.546 191.676H942.843C934.901 191.676 928.334 185.262 928.334 177.167V107.522C928.334 100.191 933.832 93.929 941.163 93.1654L966.822 90.2635C972.778 92.0963 977.055 97.4418 977.055 104.009Z" fill="#AAC1BC"/>
<path d="M968.96 199.007H946.05C945.287 199.007 944.676 198.396 944.676 197.633V192.898C944.676 192.134 945.287 191.524 946.05 191.524H968.96C969.724 191.524 970.334 192.134 970.334 192.898V197.633C970.334 198.396 969.724 199.007 968.96 199.007Z" fill="#77968D"/>
<path d="M967.279 206.033H947.73C946.966 206.033 946.355 205.422 946.355 204.658V199.771C946.355 199.007 946.966 198.396 947.73 198.396H967.279C968.043 198.396 968.654 199.007 968.654 199.771V204.658C968.654 205.422 968.043 206.033 967.279 206.033Z" fill="#AAC1BC"/>
<path d="M968.502 212.906H946.509C945.746 212.906 945.135 212.295 945.135 211.531V206.797C945.135 206.033 945.746 205.422 946.509 205.422H968.502C969.266 205.422 969.877 206.033 969.877 206.797V211.531C969.877 212.295 969.266 212.906 968.502 212.906Z" fill="#77968D"/>
<path d="M999.812 229.248L996.91 291.104V292.325L995.23 328.523L994.772 338.755L994.008 354.792H923.6L922.836 338.755L922.378 328.523L920.393 286.064V284.842L917.796 229.095C917.338 218.862 924.516 210.309 933.68 210.309H984.081C992.939 210.615 1000.27 219.168 999.812 229.248Z" fill="#94AFA8"/>
<path d="M984.539 229.248L981.637 291.104V292.325L979.957 328.523L979.499 338.755L978.735 354.792H923.6L922.836 338.755L922.378 328.523L920.393 286.064V284.842L917.796 229.095C917.338 218.862 924.516 210.309 933.68 210.309H968.808C977.666 210.615 984.997 219.168 984.539 229.248Z" fill="#AAC1BC"/>
<path d="M882.82 242.383C882.82 247.27 878.849 251.241 873.962 251.241C869.075 251.241 865.104 247.27 865.104 242.383C865.104 237.495 869.075 233.524 873.962 233.524C878.849 233.524 882.82 237.495 882.82 242.383Z" fill="#AAC1BC"/>
<path d="M873.808 246.965C876.339 246.965 878.39 244.913 878.39 242.383C878.39 239.852 876.339 237.801 873.808 237.801C871.278 237.801 869.227 239.852 869.227 242.383C869.227 244.913 871.278 246.965 873.808 246.965Z" fill="#77968D"/>
<path d="M823.561 185.262L828.906 190.913C835.015 197.327 834.71 207.56 828.295 213.517C821.881 219.626 811.648 219.32 805.691 212.906L800.346 207.255L806.455 201.451L811.648 206.949C814.55 210.004 819.437 210.157 822.492 207.255C825.546 204.353 825.699 199.466 822.797 196.411L817.604 190.913L823.561 185.262Z" fill="#AAC1BC"/>
<path d="M960.255 56.9683C960.255 58.4956 959.033 59.8702 957.353 59.8702C955.826 59.8702 954.451 58.6484 954.451 56.9683C954.451 55.441 955.673 54.0665 957.353 54.0665C959.033 54.0665 960.255 55.2883 960.255 56.9683Z" fill="#F7BF22"/>
<path d="M977.513 165.559C964.225 157.312 950.938 173.807 937.803 165.559C937.803 164.185 937.803 162.81 937.803 161.436C951.09 169.683 964.378 153.188 977.513 161.436C977.513 162.81 977.513 164.185 977.513 165.559Z" fill="#77968D"/>
<path d="M954.19 144.687C959.677 139.2 959.677 130.304 954.19 124.816C948.702 119.329 939.806 119.329 934.318 124.816C928.831 130.304 928.831 139.2 934.318 144.687C939.806 150.175 948.702 150.175 954.19 144.687Z" fill="#94AFA8"/>
<path d="M985.234 137.908C987.024 130.357 982.354 122.785 974.803 120.994C967.253 119.204 959.68 123.874 957.89 131.425C956.1 138.975 960.77 146.548 968.32 148.338C975.871 150.128 983.443 145.458 985.234 137.908Z" fill="#94AFA8"/>
<path d="M972.166 120.657H944.217V148.759H972.166V120.657Z" fill="#94AFA8"/>
<path d="M947.731 127.377H941.316V142.192H947.731V127.377Z" fill="#F7BF22"/>
<path d="M975.678 127.377H969.264V142.192H975.678V127.377Z" fill="#F7BF22"/>
<path d="M935.206 125.086L933.221 122.49L949.105 109.66L952.312 115.158L935.206 125.086Z" fill="#77968D"/>
<path d="M981.94 125.086L983.925 122.49L968.041 109.66L964.834 115.158L981.94 125.086Z" fill="#77968D"/>
<path d="M984.997 234.135H931.389V267.736H984.997V234.135Z" fill="#94AFA8"/>
<path d="M979.803 237.343H936.58V264.528H979.803V237.343Z" fill="#77968D"/>
<path d="M975.832 242.841H940.398V244.521H975.832V242.841Z" fill="#F7BF22"/>
<path d="M970.335 247.576H946.051V249.256H970.335V247.576Z" fill="#F7BF22"/>
<path d="M972.93 251.699H943.301V253.379H972.93V251.699Z" fill="#F7BF22"/>
<path d="M996.909 291.256L996.756 292.478H967.432V277.511H941.468V286.216H920.086V284.994H940.246V276.289H968.654V291.256H996.909Z" fill="#77968D"/>
<path d="M940.857 287.591C942.123 287.591 943.148 286.565 943.148 285.3C943.148 284.035 942.123 283.009 940.857 283.009C939.592 283.009 938.566 284.035 938.566 285.3C938.566 286.565 939.592 287.591 940.857 287.591Z" fill="#77968D"/>
<path d="M942.385 276.747C942.385 277.663 941.774 278.274 940.857 278.274C939.941 278.274 939.33 277.663 939.33 276.747C939.33 275.831 939.941 275.22 940.857 275.22C941.774 275.22 942.385 275.831 942.385 276.747Z" fill="#77968D"/>
<path d="M969.572 276.747C969.572 277.663 968.961 278.274 968.045 278.274C967.128 278.274 966.518 277.663 966.518 276.747C966.518 275.831 967.128 275.22 968.045 275.22C968.961 275.22 969.572 275.831 969.572 276.747Z" fill="#77968D"/>
<path d="M969.572 291.409C969.572 292.325 968.961 292.936 968.045 292.936C967.128 292.936 966.518 292.325 966.518 291.409C966.518 290.493 967.128 289.882 968.045 289.882C968.961 289.882 969.572 290.645 969.572 291.409Z" fill="#77968D"/>
<path d="M995.839 338.755H921.154V361.207H995.839V338.755Z" fill="#658279"/>
<path d="M970.486 338.755H921.154V361.207H970.486V338.755Z" fill="#77968D"/>
<path d="M995.075 328.675L994.617 338.908H922.681L922.07 328.675H995.075Z" fill="#94AFA8"/>
<path d="M815.619 205.727C816.23 205.269 816.841 204.811 817.452 204.353C834.863 193.204 834.558 235.815 834.558 235.815" stroke="#77968D" stroke-width="1.5273" stroke-miterlimit="10"/>
<path d="M832.721 242.23H830.889V248.797H832.721V242.23Z" fill="#77968D"/>
<path d="M838.831 242.23H836.998V248.797H838.831V242.23Z" fill="#77968D"/>
<path d="M841.428 239.634V244.368H828.293V239.634C828.293 235.968 831.195 233.066 834.86 233.066C836.693 233.066 838.373 233.83 839.442 235.052C839.595 235.204 839.748 235.357 839.9 235.51C840.817 236.579 841.428 238.106 841.428 239.634Z" fill="#77968D"/>
<path d="M841.427 239.634V244.368H830.125V241.161C830.125 237.495 833.027 234.593 836.692 234.593C837.914 234.593 838.983 234.899 839.9 235.51C840.816 236.579 841.427 238.106 841.427 239.634Z" fill="#AAC1BC"/>
<path d="M1104.73 205.727C1104.12 205.269 1103.51 204.811 1102.9 204.353C1085.49 193.204 1085.8 235.815 1085.8 235.815" stroke="#77968D" stroke-width="1.5273" stroke-miterlimit="10"/>
<path d="M1079.08 239.634V244.368H1092.21V239.634C1092.21 235.968 1089.31 233.066 1085.65 233.066C1083.81 233.066 1082.13 233.83 1081.06 235.052C1080.91 235.204 1080.76 235.357 1080.61 235.51C1079.54 236.579 1079.08 238.106 1079.08 239.634Z" fill="#77968D"/>
<path d="M1079.08 239.634V244.368H1090.38V241.161C1090.38 237.495 1087.48 234.593 1083.81 234.593C1082.59 234.593 1081.52 234.899 1080.61 235.51C1079.54 236.579 1079.08 238.106 1079.08 239.634Z" fill="#AAC1BC"/>
<path d="M822.206 265.268L820.025 264.27L821.627 260.463L816.793 264.732L818.783 265.625L817.181 269.432L822.206 265.268Z" fill="#FFC84D"/>
<path d="M856.161 256.724L854.032 258.966L849 255L853.839 263.276L855.774 261.207L861 265L856.161 256.724Z" fill="#FFC84D"/>
<path d="M843.5 270.305L840.5 272.2L837 265L838.5 277.695L841.333 275.8L845 283L843.5 270.305Z" fill="#FFC84D"/>
<path d="M1067.42 254.787L1065.68 253.83L1068 250L1062.58 254.021L1064.13 255.17L1062 259L1067.42 254.787Z" fill="#FFC84D"/>
<path d="M1108 258.783L1105.1 259.554L1103.35 253L1102 263.217L1105.1 262.639L1106.65 269L1108 258.783Z" fill="#FFC84D"/>
<path d="M1088 271.571L1084.17 271.19L1085.13 263L1079 274.238L1082.83 274.619L1081.87 283L1088 271.571Z" fill="#FFC84D"/>
</g>
<defs>
<clipPath id="clip0_532_568">
<rect width="1920" height="490" fill="white"/>
</clipPath>
</defs>
</svg>
