<svg width="191" height="41" viewBox="0 0 191 41" fill="none" xmlns="http://www.w3.org/2000/svg">
<path d="M74.7 12.2L70.8 24.1L67 12.2H63.4L59.4 24L55.6 12.2H51.6L57 29H61.2L65 17.6L68.7 29H72.9L78.4 12.2H74.7ZM92.5 29H96.6L89.1 12.2H85.3L77.8 29H81.8L83.3 25.4H91.1L92.5 29ZM84.5 22.4L87.2 16L89.9 22.4H84.5ZM113.2 29L109.4 23.6C111.6 22.7 112.9 20.8 112.9 18.3C112.9 14.5 110.1 12.2 105.6 12.2H98.3V29H102.2V24.3H105.6H105.8L109 29H113.2ZM109 18.3C109 20.1 107.8 21.2 105.4 21.2H102.2V15.3H105.4C107.8 15.4 109 16.4 109 18.3ZM119.3 29H123.2V15.4H128.6V12.2H114V15.4H119.4V29H119.3ZM142.3 29H146.4L138.9 12.2H135.1L127.6 29H131.6L133.1 25.4H140.9L142.3 29ZM134.3 22.4L137 16L139.7 22.4H134.3ZM168.9 12.2L165 24.1L161.2 12.2H157.6L153.6 24L149.8 12.2H145.8L151.3 29H155.5L159.3 17.6L163 29H167.2L172.7 12.2H168.9ZM186.8 29H190.9L183.4 12.2H179.6L172 29H176L177.5 25.4H185.3L186.8 29ZM178.7 22.4L181.4 16L184.1 22.4H178.7Z" fill="white"/>
<path d="M20.7 40.5C9.8 40.5 1 31.6 1 20.7C1 9.8 9.8 1 20.7 1C31.6 1 40.4 9.9 40.4 20.7C40.4 31.5 31.6 40.5 20.7 40.5ZM20.7 3.9C11.4 3.9 3.9 11.5 3.9 20.7C3.9 30 11.5 37.5 20.7 37.5C29.9 37.5 37.6 30 37.6 20.7C37.6 11.4 30 3.9 20.7 3.9Z" fill="white"/>
<path d="M30.1 12.3001C27.8 10.0001 23.8 8.80005 19.6 9.00005C15.3 9.30005 11.6 11.1001 9.2 14.1001C8.8 14.6001 8.9 15.2001 9.4 15.6001C9.9 16.0001 10.5 15.9001 10.9 15.4001C13.6 12.0001 17.6 11.2001 19.7 11.1001C23.3 10.9001 26.8 11.9001 28.6 13.8001C32.5 17.7001 33.4 22.7001 30.7 26.0001C29.3 27.7001 27.4 28.6001 25.7 28.4001C24.3 28.2001 23.2 27.4001 22.7 26.1001C22.4 25.2001 22.4 24.4001 22.9 23.7001C23.3 23.1001 24 22.8001 24.6 22.7001C25.1 22.7001 25.5 22.9001 25.7 23.2001C26 23.5001 26.1 24.0001 26 24.5001C25.9 24.8001 25.6 24.7001 25.6 24.7001C25.4 24.7001 25.4 24.6001 25.4 24.5001C25.4 23.9001 25 23.4001 24.4 23.4001C23.8 23.4001 23.3 23.8001 23.3 24.4001C23.3 25.6001 24.1 26.6001 25.3 26.8001C26.6 27.0001 27.8 26.2001 28 25.0001C28.3 23.9001 28 22.8001 27.3 21.9001C26.6 21.1001 25.7 20.6001 24.6 20.7001C23.3 20.7001 22 21.5001 21.2 22.6001C21 22.9001 20.8 23.3001 20.7 23.6001L18.7 19.2001C18.6 19.1001 18.5 19.0001 18.4 19.0001H14.3C14 19.0001 13.9 19.3001 14 19.5001L15.6 22.7001C15.6 22.8001 15.6 22.9001 15.6 23.0001L14.8 25.2001C14.7 25.5001 14.3 25.5001 14.2 25.2001L11.4 19.2001C11.1 19.1001 11 19.0001 10.9 19.0001H6.9C6.6 19.0001 6.5 19.3001 6.6 19.5001C7.7 21.7001 12 30.8001 12.6 32.1001C13.4 33.5001 14.6 33.3001 15.2 31.8001C15.6 30.8001 16.5 28.5001 16.9 27.4001C17 27.1001 17.4 27.1001 17.5 27.4001C18.1 28.6001 19.3 30.9001 19.9 32.1001C20.7 33.7001 22 33.3001 22.5 32.1001C22.9 31.2001 23.3 30.3001 23.4 30.0001C23.4 30.0001 23.4 30.0001 23.4 29.9001C24 30.2001 24.7 30.5001 25.4 30.6001C25.7 30.6001 25.9 30.6001 26.2 30.6001C28.4 30.6001 30.7 29.4001 32.4 27.4001C35.7 23.2001 34.8 17.0001 30.1 12.3001Z" fill="white"/>
<path d="M25.5 15.4C24.6 15.1 23.8 15.4 23.3 16C22.9 16.6 23.3 16.8 23.6 16.9C23.9 17 23.8 17.4 24.2 17.6C24.7 17.8 24.9 17.5 25.2 17.6C25.5 17.7 25.7 18.4 26.1 17.7C26.5 17 26.4 15.7 25.5 15.4Z" fill="white"/>
</svg>
