<svg width="400" height="540" viewBox="0 0 400 540" fill="none" xmlns="http://www.w3.org/2000/svg">
<g opacity="0.2">
<path d="M394.967 518.698C287.239 589.69 142.299 559.044 71.3071 451.316C0.31487 343.587 29.9732 199.299 137.701 128.307C245.429 57.3149 390.369 87.9615 460.71 194.701C531.051 301.441 502.695 447.706 394.967 518.698ZM156.589 156.969C64.6743 217.54 40.0487 341.501 99.9688 432.428C160.54 524.343 284.501 548.968 375.428 489.048C466.354 429.128 493.608 304.853 433.036 212.938C372.465 121.023 248.504 96.3974 156.589 156.969Z" fill="url(#paint0_linear_530_240)"/>
<path d="M304.202 178.766C266.49 171.014 219.141 185.206 178.934 214.538C138.39 245.509 113.545 287.397 109.364 332.679C108.667 340.226 113.563 345.504 121.11 346.201C128.657 346.898 133.936 342.002 134.633 334.455C139.173 283.266 173.496 249.307 193.6 234.642C227.877 209.218 268.982 196.306 299.147 203.36C363.092 216.504 404.553 260.059 399.361 310.259C396.596 336.179 383.68 357.449 365.575 366.545C350.436 373.686 334.354 372.944 320.946 363.352C312.119 356.411 306.908 348.504 307.291 338.33C307.336 329.794 312.301 322.27 317.579 317.374C322.521 314.118 327.777 313.489 331.708 315.151C336.627 316.162 340.871 320.453 343.14 326.046C344.105 329.662 340.489 330.628 340.489 330.628C338.512 331.93 337.861 330.942 337.21 329.954C333.302 324.024 326.092 321.687 320.162 325.595C314.232 329.503 311.895 336.713 315.803 342.643C323.619 354.503 338.039 359.176 351.201 353.337C365.352 346.846 372.002 331.124 366.163 317.961C361.963 305.136 351.834 296.218 339.054 291.882C326.925 288.535 314.774 289.455 304.553 297.607C291.705 306.074 284.067 322.448 283.325 338.53C283.302 342.798 283.931 348.054 284.896 351.67L236.472 321.21C234.833 320.872 233.193 320.535 232.205 321.187L191.683 347.89C188.718 349.844 189.684 353.461 191.975 354.786L228.63 375.992C229.281 376.98 229.932 377.968 230.584 378.957L237.006 405.91C237.971 409.527 234.018 412.132 231.076 409.818L164.324 368.755C160.708 369.72 159.068 369.383 158.08 370.035L118.546 396.087C115.581 398.041 116.547 401.657 118.838 402.982C144.038 417.561 245.805 479.493 260.202 488.434C277.227 497.06 287.785 487.268 283.945 468.535C281.385 456.046 275.3 427.453 272.089 413.976C271.124 410.36 275.077 407.755 278.019 410.068C291.765 418.021 318.605 432.936 332.351 440.889C350.678 451.491 360.921 439.071 358.047 423.955C356.139 412.454 354.23 400.954 353.265 397.338C353.265 397.338 353.265 397.338 352.613 396.35C360.497 395.407 369.37 393.813 376.939 390.242C379.904 388.288 381.881 386.985 384.846 385.031C406.589 370.703 421.505 343.863 425.281 313.024C430.541 250.021 381.265 194.606 304.202 178.766Z" fill="url(#paint1_linear_530_240)"/>
<path d="M278.929 239.364C268.08 242.261 262.127 250.436 261.094 259.623C261.048 268.158 266.304 267.529 269.92 266.564C273.537 265.598 275.153 270.203 280.409 269.574C286.654 268.294 286.676 264.027 290.293 263.061C293.909 262.096 300.445 267.711 299.839 258.188C299.233 248.664 289.778 236.467 278.929 239.364Z" fill="url(#paint2_linear_530_240)"/>
</g>
<defs>
<linearGradient id="paint0_linear_530_240" x1="137.701" y1="128.307" x2="394.967" y2="518.698" gradientUnits="userSpaceOnUse">
<stop stop-color="#198D47"/>
<stop offset="1" stop-color="#121312" stop-opacity="0"/>
</linearGradient>
<linearGradient id="paint1_linear_530_240" x1="187.353" y1="208.684" x2="344.818" y2="447.632" gradientUnits="userSpaceOnUse">
<stop stop-color="#198D47"/>
<stop offset="1" stop-color="#121312" stop-opacity="0"/>
</linearGradient>
<linearGradient id="paint2_linear_530_240" x1="270.529" y1="243.231" x2="288.279" y2="270.165" gradientUnits="userSpaceOnUse">
<stop stop-color="#198D47"/>
<stop offset="1" stop-color="#121312" stop-opacity="0"/>
</linearGradient>
</defs>
</svg>
