<svg width="370" height="110" viewBox="0 0 370 110" fill="none" xmlns="http://www.w3.org/2000/svg">
<g filter="url(#filter0_dd_400_186)">
<path d="M148.454 31.1268L141.695 51.7341L135.11 31.1268H128.871L121.939 51.561L115.354 31.1268H108.422L117.78 60.2195H125.059L131.644 40.4781L138.056 60.2195H145.334L154.866 31.1268H148.454ZM179.301 60.2195H186.406L173.409 31.1268H166.823L153.826 60.2195H160.758L163.357 53.9854H176.875L179.301 60.2195ZM165.437 48.7902L170.116 37.7073L174.795 48.7902H165.437ZM215.174 60.2195L208.588 50.8683C212.401 49.3098 214.654 46.0195 214.654 41.6902C214.654 35.1098 209.801 31.1268 202.003 31.1268H189.352V60.2195H196.111V52.0805H202.003H202.35L207.895 60.2195H215.174ZM207.895 41.6902C207.895 44.8073 205.816 46.7122 201.656 46.7122H196.111V36.4951H201.656C205.816 36.6683 207.895 38.4 207.895 41.6902ZM225.745 60.2195H232.504V36.6683H241.862V31.1268H216.56V36.6683H225.918V60.2195H225.745ZM265.604 60.2195H272.709L259.711 31.1268H253.126L240.129 60.2195H247.061L249.66 53.9854H263.177L265.604 60.2195ZM251.74 48.7902L256.419 37.7073L261.098 48.7902H251.74ZM311.701 31.1268L304.942 51.7341L298.357 31.1268H292.118L285.186 51.561L278.601 31.1268H271.669L281.2 60.2195H288.479L295.064 40.4781L301.476 60.2195H308.755L318.286 31.1268H311.701ZM342.721 60.2195H349.827L336.829 31.1268H330.244L317.073 60.2195H324.005L326.605 53.9854H340.122L342.721 60.2195ZM328.684 48.7902L333.363 37.7073L338.042 48.7902H328.684Z" fill="url(#paint0_linear_400_186)"/>
<path d="M54.8727 80.1342C35.9832 80.1342 20.7329 64.722 20.7329 45.8464C20.7329 26.9707 35.9832 11.7317 54.8727 11.7317C73.7622 11.7317 89.0125 27.1439 89.0125 45.8464C89.0125 64.5488 73.7622 80.1342 54.8727 80.1342ZM54.8727 16.7537C38.7559 16.7537 25.7586 29.9146 25.7586 45.8464C25.7586 61.9512 38.9292 74.939 54.8727 74.939C70.8162 74.939 84.1601 61.9512 84.1601 45.8464C84.1601 29.7415 70.9895 16.7537 54.8727 16.7537Z" fill="url(#paint1_linear_400_186)"/>
<path d="M71.1627 31.3C67.1768 27.3171 60.2449 25.2391 52.9663 25.5854C45.5145 26.1049 39.1025 29.222 34.9433 34.4171C34.2501 35.283 34.4234 36.322 35.2899 37.0147C36.1564 37.7073 37.1962 37.5342 37.8894 36.6683C42.5684 30.7805 49.5004 29.3952 53.1396 29.222C59.3784 28.8756 65.4438 30.6073 68.5632 33.8976C75.3218 40.6512 76.8815 49.3098 72.2025 55.0244C69.7763 57.9683 66.4836 59.5269 63.5375 59.1805C61.1114 58.8342 59.2051 57.4488 58.3386 55.1976C57.8187 53.6391 57.8187 52.2537 58.6852 51.0415C59.3784 50.0025 60.5915 49.483 61.6313 49.3098C62.4978 49.3098 63.1909 49.6561 63.5375 50.1756C64.0574 50.6952 64.2307 51.561 64.0574 52.4269C63.8841 52.9464 63.3642 52.7732 63.3642 52.7732C63.0177 52.7732 63.0177 52.6 63.0177 52.4269C63.0177 51.3878 62.3245 50.522 61.2847 50.522C60.2449 50.522 59.3784 51.2147 59.3784 52.2537C59.3784 54.3317 60.7648 56.0634 62.8443 56.4098C65.0972 56.7561 67.1768 55.3708 67.5234 53.2927C68.0433 51.3878 67.5234 49.483 66.3103 47.9244C65.0972 46.5391 63.5375 45.6732 61.6313 45.8464C59.3784 45.8464 57.1255 47.2317 55.7391 49.1366C55.3925 49.6561 55.0459 50.3488 54.8726 50.8683L51.4067 43.2488C51.2334 43.0756 51.0601 42.9025 50.8868 42.9025H43.7815C43.2616 42.9025 43.0883 43.422 43.2616 43.7683L46.0344 49.3098C46.0344 49.483 46.0344 49.6561 46.0344 49.8293L44.648 53.6391C44.4747 54.1586 43.7815 54.1586 43.6082 53.6391L38.7559 43.2488C38.236 43.0756 38.0627 42.9025 37.8894 42.9025H30.9574C30.4375 42.9025 30.2642 43.422 30.4375 43.7683C32.3438 47.5781 39.7957 63.3366 40.8355 65.5878C42.2218 68.0122 44.3014 67.6659 45.3412 65.0683C46.0344 63.3366 47.5941 59.3537 48.2873 57.4488C48.4606 56.9293 49.1538 56.9293 49.3271 57.4488C50.3669 59.5269 52.4464 63.5098 53.4862 65.5878C54.8726 68.3586 57.1255 67.6659 57.992 65.5878C58.6852 64.0293 59.3784 62.4708 59.5517 61.9513C59.5517 61.9513 59.5517 61.9512 59.5517 61.7781C60.5915 62.2976 61.8046 62.8171 63.0177 62.9903C63.5375 62.9903 63.8841 62.9903 64.404 62.9903C68.2166 62.9903 72.2025 60.9122 75.1485 57.4488C80.8674 50.1756 79.3077 39.4391 71.1627 31.3Z" fill="url(#paint2_linear_400_186)"/>
<path d="M63.1911 36.6683C61.6315 36.1488 60.2451 36.6683 59.3786 37.7073C58.6854 38.7463 59.3786 39.0927 59.8985 39.2658C60.4184 39.439 60.2451 40.1317 60.9383 40.478C61.8048 40.8244 62.1514 40.3049 62.6713 40.478C63.1911 40.6512 63.5377 41.8634 64.2309 40.6512C64.9241 39.439 64.7508 37.1878 63.1911 36.6683Z" fill="url(#paint3_linear_400_186)"/>
</g>
<defs>
<filter id="filter0_dd_400_186" x="-1" y="-1" width="371" height="111" filterUnits="userSpaceOnUse" color-interpolation-filters="sRGB">
<feFlood flood-opacity="0" result="BackgroundImageFix"/>
<feColorMatrix in="SourceAlpha" type="matrix" values="0 0 0 0 0 0 0 0 0 0 0 0 0 0 0 0 0 0 127 0" result="hardAlpha"/>
<feOffset/>
<feColorMatrix type="matrix" values="0 0 0 0 0.0980392 0 0 0 0 0.101961 0 0 0 0 0.0980392 0 0 0 1 0"/>
<feBlend mode="normal" in2="BackgroundImageFix" result="effect1_dropShadow_400_186"/>
<feColorMatrix in="SourceAlpha" type="matrix" values="0 0 0 0 0 0 0 0 0 0 0 0 0 0 0 0 0 0 127 0" result="hardAlpha"/>
<feOffset dy="9"/>
<feGaussianBlur stdDeviation="10"/>
<feColorMatrix type="matrix" values="0 0 0 0 0.0980392 0 0 0 0 0.101961 0 0 0 0 0.0980392 0 0 0 0.98 0"/>
<feBlend mode="normal" in2="effect1_dropShadow_400_186" result="effect2_dropShadow_400_186"/>
<feBlend mode="normal" in="SourceGraphic" in2="effect2_dropShadow_400_186" result="shape"/>
</filter>
<linearGradient id="paint0_linear_400_186" x1="229.124" y1="31.1268" x2="229.124" y2="60.2195" gradientUnits="userSpaceOnUse">
<stop stop-color="white"/>
<stop offset="1" stop-color="#C1D6C4"/>
</linearGradient>
<linearGradient id="paint1_linear_400_186" x1="54.8727" y1="11.7317" x2="54.8727" y2="80.1342" gradientUnits="userSpaceOnUse">
<stop stop-color="white"/>
<stop offset="1" stop-color="#C1D6C4"/>
</linearGradient>
<linearGradient id="paint2_linear_400_186" x1="54.4672" y1="25.5481" x2="54.4672" y2="67.4153" gradientUnits="userSpaceOnUse">
<stop stop-color="white"/>
<stop offset="1" stop-color="#C1D6C4"/>
</linearGradient>
<linearGradient id="paint3_linear_400_186" x1="61.8527" y1="36.4645" x2="61.8527" y2="41.1838" gradientUnits="userSpaceOnUse">
<stop stop-color="white"/>
<stop offset="1" stop-color="#C1D6C4"/>
</linearGradient>
</defs>
</svg>
